<?xml version="1.0" encoding="UTF-8"?>
<svg version="1.1" xmlns="http://www.w3.org/2000/svg" width="408" height="612">
<path d="M0 0 C0.72251953 0.03077637 1.44503906 0.06155273 2.18945312 0.09326172 C6.8229344 0.35539059 10.8025042 1.21492292 15.1875 2.625 C15.1875 3.285 15.1875 3.945 15.1875 4.625 C14.30449219 4.91632813 13.42148437 5.20765625 12.51171875 5.5078125 C4.58183755 8.2164078 -2.60207274 11.29685362 -9.8125 15.625 C-10.73748291 16.16882324 -10.73748291 16.16882324 -11.68115234 16.72363281 C-19.82447949 21.52726978 -27.2130166 26.36652304 -33.9921875 33.0078125 C-35.8125 34.625 -35.8125 34.625 -37.8125 34.625 C-37.8125 35.285 -37.8125 35.945 -37.8125 36.625 C-38.94752107 37.79441565 -40.08973412 38.95747551 -41.26171875 40.08984375 C-49.41360326 48.1595934 -56.05292945 56.86715781 -60.125 67.625 C-60.36742432 68.26501953 -60.60984863 68.90503906 -60.85961914 69.56445312 C-63.98696532 78.32234804 -65.1446812 86.85222082 -65.0625 96.125 C-65.07023437 96.99769531 -65.07796875 97.87039062 -65.0859375 98.76953125 C-65.01992664 121.04819705 -53.77269688 138.94730779 -41.71875 156.7890625 C-17.8125 192.3545082 -17.8125 192.3545082 -17.8125 205.625 C-19.75 204.8125 -19.75 204.8125 -21.8125 203.625 C-22.1425 202.635 -22.4725 201.645 -22.8125 200.625 C-24.66221696 199.57478897 -24.66221696 199.57478897 -26.8125 198.625 C-29.0625 197.125 -29.0625 197.125 -30.8125 195.625 C-30.8125 194.965 -30.8125 194.305 -30.8125 193.625 C-31.39257812 193.51414062 -31.97265625 193.40328125 -32.5703125 193.2890625 C-35.06096374 192.55141318 -36.59152982 191.52508336 -38.6875 190 C-43.15044051 186.92389059 -47.84637309 184.5326485 -52.70825195 182.17260742 C-56.67417961 180.23422583 -60.41221255 178.14066795 -64.06640625 175.66796875 C-65.83736557 174.5427153 -65.83736557 174.5427153 -68.0390625 173.76953125 C-71.7816421 172.22505826 -75.15685065 170.20257081 -78.625 168.125 C-79.66430664 167.51978516 -79.66430664 167.51978516 -80.72460938 166.90234375 C-82.45673445 165.86818829 -84.13980564 164.75275368 -85.8125 163.625 C-85.8125 162.965 -85.8125 162.305 -85.8125 161.625 C-86.34101563 161.55667969 -86.86953125 161.48835937 -87.4140625 161.41796875 C-90.8389241 160.2856448 -93.39372534 158.14722003 -96.1875 155.9375 C-96.76459717 155.48632812 -97.34169434 155.03515625 -97.9362793 154.5703125 C-101.83804808 151.48470467 -105.52861573 148.37801059 -108.8125 144.625 C-108.8125 143.965 -108.8125 143.305 -108.8125 142.625 C-109.37839844 142.43550781 -109.94429687 142.24601563 -110.52734375 142.05078125 C-113.80269795 140.00718418 -115.4123941 137.03938153 -117.375 133.8125 C-117.76107422 133.19568359 -118.14714844 132.57886719 -118.54492188 131.94335938 C-119.30077984 130.73166883 -120.05053534 129.51614707 -120.79370117 128.29663086 C-121.66869673 126.86095039 -122.56297085 125.43705088 -123.4609375 124.015625 C-133.43727926 106.3696101 -132.4594185 83.6933897 -127.8125 64.625 C-125.46587139 56.19451944 -121.43024801 49.01773274 -116.8125 41.625 C-116.42835938 40.99335938 -116.04421875 40.36171875 -115.6484375 39.7109375 C-113.43887775 36.20797693 -110.80155617 33.4750303 -107.8125 30.625 C-107.32136719 30.10164063 -106.83023438 29.57828125 -106.32421875 29.0390625 C-87.18444878 8.84866076 -59.35838654 0.44700774 -32.22167969 -0.32080078 C-21.47073902 -0.56266426 -10.74283982 -0.51570989 0 0 Z " fill="#FCC302" transform="translate(261.8125,152.375)"/>
<path d="M0 0 C9.25670399 3.2846369 17.59870068 9.13850504 25.875 14.3125 C26.88691406 14.93833984 27.89882812 15.56417969 28.94140625 16.20898438 C34.98131207 19.97909204 40.79675142 23.94995499 46.52246094 28.18139648 C50.24132017 30.91117402 54.06565271 33.47482054 57.91601562 36.015625 C59.3121686 36.96091945 60.66168616 37.97445585 62 39 C62 39.66 62 40.32 62 41 C62.54269531 41.22816406 63.08539063 41.45632813 63.64453125 41.69140625 C80.9193159 51.28850883 94.43217017 72.54756665 99.8671875 90.93359375 C106.4063732 115.37769267 102.20748781 138.33424205 90.07470703 160.16650391 C87.42512839 164.68679822 84.51488097 169.10557789 81 173 C80.34 173 79.68 173 79 173 C78.7525 173.5775 78.505 174.155 78.25 174.75 C76.81700012 177.32939979 75.21575324 179.06121592 73 181 C72.34 181 71.68 181 71 181 C71 181.66 71 182.32 71 183 C69.05741854 184.62856671 67.1284927 186.10346873 65.0625 187.5625 C64.44149414 188.00287598 63.82048828 188.44325195 63.18066406 188.89697266 C44.36124905 201.91039793 23.74786508 209.44434441 1 212 C0.27603027 212.08830078 -0.44793945 212.17660156 -1.19384766 212.26757812 C-8.05472257 213.04599966 -14.849684 213.15429856 -21.75 213.125 C-22.89436523 213.12161621 -24.03873047 213.11823242 -25.21777344 213.11474609 C-46.80297204 212.98294213 -46.80297204 212.98294213 -55 210 C-53.70938917 207.41877835 -52.79298392 207.35586228 -50.125 206.37109375 C-49.31281006 206.06292725 -48.50062012 205.75476074 -47.66381836 205.43725586 C-46.34522827 204.94237671 -46.34522827 204.94237671 -45 204.4375 C-27.1862294 197.5300544 -10.8583679 188.52791269 3.56640625 175.94140625 C6 174 6 174 8 174 C8.33 173.01 8.66 172.02 9 171 C10.42578125 169.703125 10.42578125 169.703125 12.3125 168.25 C16.46364119 164.73576676 19.80645111 160.79599761 23.1875 156.5625 C23.68612549 155.94213867 24.18475098 155.32177734 24.69848633 154.68261719 C39.71987079 135.60578336 45.12028545 113.93010212 42.79785156 89.90917969 C40.65639621 73.78765734 33.23310942 59.9904678 25.23291016 46.13964844 C24.0833009 44.14456417 22.9502647 42.14126616 21.82421875 40.1328125 C18.86818495 34.87536095 15.84263192 29.68813941 12.5625 24.625 C9.57929434 19.99826899 6.78902039 15.28090935 4.0625 10.5 C3.4593396 9.45706787 3.4593396 9.45706787 2.84399414 8.39306641 C0 3.35400167 0 3.35400167 0 0 Z " fill="#FAC203" transform="translate(204,261)"/>
<path d="M0 0 C3.75427649 2.50285099 5.0300913 5.49805079 6.9375 9.4375 C7.28941406 10.15454102 7.64132813 10.87158203 8.00390625 11.61035156 C15 26.08837891 15 26.08837891 15 33 C13.0625 32.1875 13.0625 32.1875 11 31 C10.67 30.01 10.34 29.02 10 28 C8.15028304 26.94978897 8.15028304 26.94978897 6 26 C3.75 24.5 3.75 24.5 2 23 C2 22.34 2 21.68 2 21 C1.360625 20.87625 0.72125 20.7525 0.0625 20.625 C-0.9584375 20.315625 -0.9584375 20.315625 -2 20 C-2.33 19.34 -2.66 18.68 -3 18 C-1.68 18 -0.36 18 1 18 C1 16.35 1 14.7 1 13 C1.99 12.67 2.98 12.34 4 12 C3.51917969 11.60167969 3.03835937 11.20335937 2.54296875 10.79296875 C0.62608175 8.56549753 0.52258357 7.21165331 0.3125 4.3125 C0.24675781 3.50425781 0.18101562 2.69601562 0.11328125 1.86328125 C0.07589844 1.24839844 0.03851563 0.63351562 0 0 Z " fill="#E4B50E" transform="translate(229,325)"/>
<path d="M0 0 C9.01323009 3.19824294 17.03068361 8.83111629 25 14 C24.01 14.495 24.01 14.495 23 15 C20.375 14.0625 20.375 14.0625 18 13 C18 12.34 18 11.68 18 11 C17.01 11.33 16.02 11.66 15 12 C15 11.34 15 10.68 15 10 C14.34 10 13.68 10 13 10 C13 11.32 13 12.64 13 14 C12.34 14 11.68 14 11 14 C11.33 14.7425 11.66 15.485 12 16.25 C13 19 13 19 13 23 C13.99 23.33 14.98 23.66 16 24 C16.33 25.98 16.66 27.96 17 30 C14.42844231 28.71422116 14.01856736 27.46522727 12.6875 24.9375 C11.04618411 21.89071712 9.36104987 18.91779743 7.5 16 C5.66693052 13.09618517 3.8960202 10.16658171 2.1875 7.1875 C1.76855469 6.45917969 1.34960938 5.73085938 0.91796875 4.98046875 C0 3 0 3 0 0 Z " fill="#BD9A19" transform="translate(204,261)"/>
<path d="M0 0 C0 0.33 0 0.66 0 1 C-5.002603 2.31719734 -9.98863655 2.14386855 -15.12109375 2.1328125 C-16.09861099 2.13376923 -17.07612823 2.13472595 -18.08326721 2.13571167 C-20.14673934 2.13639093 -22.21021364 2.13455434 -24.27368164 2.13037109 C-27.42273795 2.12502506 -30.57165127 2.13032174 -33.72070312 2.13671875 C-35.72916698 2.13605781 -37.73763075 2.13477632 -39.74609375 2.1328125 C-40.68376083 2.13483673 -41.62142792 2.13686096 -42.58750916 2.13894653 C-47.17290261 2.1226023 -51.48850816 1.94030266 -56 1 C-56 0.67 -56 0.34 -56 0 C-37.26016919 -1.26742817 -18.73983081 -1.26742817 0 0 Z " fill="#BA971E" transform="translate(270,153)"/>
<path d="M0 0 C0.66 0.33 1.32 0.66 2 1 C0.60865582 5.42700422 -1.47884142 7.99413292 -5 11 C-5.99 11 -6.98 11 -8 11 C-8 11.66 -8 12.32 -8 13 C-9.32 13 -10.64 13 -12 13 C-12.66 14.65 -13.32 16.3 -14 18 C-15.32 17.67 -16.64 17.34 -18 17 C-12.49535464 10.53236704 -6.92082668 4.9411103 0 0 Z " fill="#AC8A12" transform="translate(169,170)"/>
<path d="M0 0 C0.33 0 0.66 0 1 0 C1 10.56 1 21.12 1 32 C0.67 31.01 0.34 30.02 0 29 C-0.99 28.67 -1.98 28.34 -3 28 C-3.02901394 24.5625177 -3.04680335 21.12506688 -3.0625 17.6875 C-3.07087891 16.71103516 -3.07925781 15.73457031 -3.08789062 14.72851562 C-3.09111328 13.79072266 -3.09433594 12.85292969 -3.09765625 11.88671875 C-3.10551147 10.59060669 -3.10551147 10.59060669 -3.11352539 9.26831055 C-3 7 -3 7 -2 4 C-1.34 4 -0.68 4 0 4 C0 2.68 0 1.36 0 0 Z " fill="#A1811C" transform="translate(196,232)"/>
<path d="M0 0 C0 0.99 0 1.98 0 3 C-1.41225926 3.67595315 -2.83002905 4.34040059 -4.25 5 C-5.43335938 5.556875 -5.43335938 5.556875 -6.640625 6.125 C-9 7 -9 7 -13 7 C-13 7.66 -13 8.32 -13 9 C-9.37 9.33 -5.74 9.66 -2 10 C-2 10.33 -2 10.66 -2 11 C-4.04136395 11.05451714 -6.08315856 11.09302485 -8.125 11.125 C-9.83042969 11.15980469 -9.83042969 11.15980469 -11.5703125 11.1953125 C-15.05757767 10.99672109 -17.7553862 10.2524801 -21 9 C-19.70374815 6.40749629 -18.70451437 6.29887769 -16.03515625 5.2734375 C-15.23529297 4.9640625 -14.43542969 4.6546875 -13.61132812 4.3359375 C-12.77021484 4.01882813 -11.92910156 3.70171875 -11.0625 3.375 C-10.22525391 3.05015625 -9.38800781 2.7253125 -8.52539062 2.390625 C-2.28264509 0 -2.28264509 0 0 0 Z " fill="#AB8F1A" transform="translate(170,462)"/>
<path d="M0 0 C1.32 0 2.64 0 4 0 C4.66 1.98 5.32 3.96 6 6 C6.66 6 7.32 6 8 6 C8 7.65 8 9.3 8 11 C8.66 11 9.32 11 10 11 C10.99 13.97 11.98 16.94 13 20 C13.33 20 13.66 20 14 20 C14.66 22.97 15.32 25.94 16 29 C12.86388103 25.86388103 11.11146247 22.69980156 9.125 18.8125 C6.89350257 14.51624987 4.65347297 10.30602297 2 6.25 C0 3 0 3 0 0 Z " fill="#9D7E14" transform="translate(223,294)"/>
<path d="M0 0 C2 1.25 2 1.25 4 3 C4 4.32 4 5.64 4 7 C4.62777344 7.0721875 5.25554687 7.144375 5.90234375 7.21875 C8 8 8 8 8.94140625 10.03125 C9.14636719 10.8459375 9.35132813 11.660625 9.5625 12.5 C10.12431977 14.92736012 10.12431977 14.92736012 11 17 C11.99 17.33 12.98 17.66 14 18 C14 18.66 14 19.32 14 20 C14.99 20 15.98 20 17 20 C17.33 21.65 17.66 23.3 18 25 C18.66 25 19.32 25 20 25 C19.67 25.99 19.34 26.98 19 28 C18.01 27.34 17.02 26.68 16 26 C16 25.34 16 24.68 16 24 C15.15115234 23.71576172 15.15115234 23.71576172 14.28515625 23.42578125 C11.00980205 21.38218418 9.4001059 18.41438153 7.4375 15.1875 C6.85838867 14.26227539 6.85838867 14.26227539 6.26757812 13.31835938 C5.51389595 12.11015678 4.76677018 10.89783495 4.02685547 9.68115234 C3.1139874 8.18661846 2.17040763 6.71094108 1.22265625 5.23828125 C0 3 0 3 0 0 Z " fill="#856D15" transform="translate(137,271)"/>
<path d="M0 0 C7.85854483 3.37810751 14.6004773 11.80548641 19 19 C19 19.66 19 20.32 19 21 C17.68 20.34 16.36 19.68 15 19 C15 18.34 15 17.68 15 17 C13.35 16.67 11.7 16.34 10 16 C9.67 14.02 9.34 12.04 9 10 C7.35 10 5.7 10 4 10 C3.67 9.34 3.34 8.68 3 8 C3.66 8 4.32 8 5 8 C5 7.34 5 6.68 5 6 C3.68 6 2.36 6 1 6 C1 4.68 1 3.36 1 2 C0.67 1.34 0.34 0.68 0 0 Z " fill="#B29015" transform="translate(272,307)"/>
<path d="M0 0 C6.75 1.75 6.75 1.75 9 4 C10.97080157 4.74276031 10.97080157 4.74276031 13 5 C13.66 4.67 14.32 4.34 15 4 C18 10.5 18 10.5 18 15 C16.0625 14.1875 16.0625 14.1875 14 13 C13.67 12.01 13.34 11.02 13 10 C11.15028304 8.94978897 11.15028304 8.94978897 9 8 C6.75 6.5 6.75 6.5 5 5 C5 4.34 5 3.68 5 3 C4.360625 2.87625 3.72125 2.7525 3.0625 2.625 C2.381875 2.41875 1.70125 2.2125 1 2 C0.67 1.34 0.34 0.68 0 0 Z " fill="#9C831F" transform="translate(226,343)"/>
<path d="M0 0 C1.98508922 3.66370852 2.37432119 6.57201984 2.625 10.75 C2.69976562 11.92046875 2.77453125 13.0909375 2.8515625 14.296875 C2.90054688 15.18890625 2.94953125 16.0809375 3 17 C3.33 17 3.66 17 4 17 C4.02689216 18.47906892 4.04634621 19.95827483 4.0625 21.4375 C4.07410156 22.26121094 4.08570313 23.08492188 4.09765625 23.93359375 C4 26 4 26 3 27 C2.76807135 28.51469448 2.58784762 30.03754562 2.4375 31.5625 C2.35371094 32.38878906 2.26992187 33.21507812 2.18359375 34.06640625 C2.12300781 34.70449219 2.06242188 35.34257812 2 36 C0.515 36.495 0.515 36.495 -1 37 C-1.33 37.66 -1.66 38.32 -2 39 C-1.855625 38.195625 -1.71125 37.39125 -1.5625 36.5625 C0.36031583 24.38466643 0.19871029 12.30322381 0 0 Z " fill="#6F5608" transform="translate(247,348)"/>
<path d="M0 0 C0.12375 0.556875 0.2475 1.11375 0.375 1.6875 C1.36991762 5.36869519 2.27565846 8.27565846 5 11 C0.88473708 10.35826346 -2.30388435 8.13013842 -5.75 5.9375 C-6.35199219 5.56044922 -6.95398438 5.18339844 -7.57421875 4.79492188 C-9.05249143 3.86806837 -10.52666089 2.93467611 -12 2 C-4.08403361 0 -4.08403361 0 0 0 Z " fill="#CEA50D" transform="translate(190,315)"/>
<path d="M0 0 C0.66 0.99 1.32 1.98 2 3 C1.34 3 0.68 3 0 3 C-0.04898438 4.10859375 -0.09796875 5.2171875 -0.1484375 6.359375 C-0.22349215 7.82294065 -0.29903881 9.28648112 -0.375 10.75 C-0.4059375 11.47960937 -0.436875 12.20921875 -0.46875 12.9609375 C-0.68149893 16.86133455 -1.20515608 19.57857879 -3 23 C-3.28693388 25.24133258 -3.48966591 27.4944319 -3.625 29.75 C-3.69976562 30.92046875 -3.77453125 32.0909375 -3.8515625 33.296875 C-3.90054688 34.18890625 -3.94953125 35.0809375 -4 36 C-4.33 36 -4.66 36 -5 36 C-5.47248139 23.82047977 -4.99506206 11.33661911 0 0 Z " fill="#806710" transform="translate(136,212)"/>
<path d="M0 0 C2 1 2 1 3 3 C1.35 3.33 -0.3 3.66 -2 4 C-2.33 4.99 -2.66 5.98 -3 7 C-5.30368736 8.06652192 -7.64018187 9.06421005 -10 10 C-10.99 10.66 -11.98 11.32 -13 12 C-14.32 12 -15.64 12 -17 12 C-17 12.66 -17 13.32 -17 14 C-18.65 14 -20.3 14 -22 14 C-19.16729773 11.80546973 -16.26797043 9.89137772 -13.1875 8.0625 C-12.31609375 7.54429687 -11.4446875 7.02609375 -10.546875 6.4921875 C-8.35288795 5.20675337 -6.15027831 3.94018855 -3.9375 2.6875 C-1.19486643 1.2818361 -1.19486643 1.2818361 0 0 Z " fill="#897015" transform="translate(196,446)"/>
<path d="M0 0 C-1.35618281 2.71236562 -3.11031802 2.94799376 -5.86499023 3.90356445 C-6.52829346 4.12101318 -7.19159668 4.33846191 -7.875 4.5625 C-8.54668213 4.78574951 -9.21836426 5.00899902 -9.91040039 5.23901367 C-15.56610348 7.03284273 -21.0583602 7.8641205 -27 8 C-26.37609375 7.690625 -25.7521875 7.38125 -25.109375 7.0625 C-23.80666318 6.40631923 -22.51645437 5.72368821 -21.25 5 C-18.51874549 3.78610911 -15.78372624 3.18185913 -12.87890625 2.5078125 C-10.90677862 2.05317136 -10.90677862 2.05317136 -8.9375 0.875 C-5.9894374 -0.45638311 -3.18319613 -0.12243062 0 0 Z " fill="#856C14" transform="translate(240,463)"/>
<path d="M0 0 C2.01822917 0.06510417 4.03645833 0.13020833 6.0546875 0.1953125 C3.36085377 2.98732696 0.58513182 5.41847898 -2.5078125 7.7578125 C-5.16958469 9.77321843 -7.64245596 11.77473805 -9.9453125 14.1953125 C-10.6053125 13.8653125 -11.2653125 13.5353125 -11.9453125 13.1953125 C-11.3059375 12.5971875 -10.6665625 11.9990625 -10.0078125 11.3828125 C-7.74220861 9.28720913 -7.74220861 9.28720913 -6.9453125 6.1953125 C-5.6253125 6.1953125 -4.3053125 6.1953125 -2.9453125 6.1953125 C-3.1515625 5.5765625 -3.3578125 4.9578125 -3.5703125 4.3203125 C-3.6940625 3.6190625 -3.8178125 2.9178125 -3.9453125 2.1953125 C-1.9453125 0.1953125 -1.9453125 0.1953125 0 0 Z " fill="#B99613" transform="translate(235.9453125,172.8046875)"/>
<path d="M0 0 C5.75599769 5.75599769 6.8827973 15.26778131 8 23 C4.88009102 20.21466571 4.46183818 18.15654359 4 14 C3.01 13.67 2.02 13.34 1 13 C0.67 8.71 0.34 4.42 0 0 Z " fill="#A08318" transform="translate(297,337)"/>
<path d="M0 0 C0.66 0 1.32 0 2 0 C1.67422369 7.16707877 -1.65443628 12.76927124 -5 19 C-5.33 19 -5.66 19 -6 19 C-6 17.02 -6 15.04 -6 13 C-5.34 13 -4.68 13 -4 13 C-4.04125 12.071875 -4.0825 11.14375 -4.125 10.1875 C-4 7 -4 7 -2 4 C-1.34 4 -0.68 4 0 4 C0 2.68 0 1.36 0 0 Z " fill="#B18F17" transform="translate(301,398)"/>
<path d="M0 0 C6.43358339 1.04328379 10.8754629 1.95431282 16 6 C15.01 6.495 15.01 6.495 14 7 C11.375 6.0625 11.375 6.0625 9 5 C9 4.34 9 3.68 9 3 C8.01 3.33 7.02 3.66 6 4 C6 3.34 6 2.68 6 2 C5.34 2 4.68 2 4 2 C4 3.32 4 4.64 4 6 C3.34 6 2.68 6 2 6 C2.33 7.32 2.66 8.64 3 10 C2.34 10 1.68 10 1 10 C0.67 6.7 0.34 3.4 0 0 Z " fill="#FAC50C" transform="translate(213,269)"/>
<path d="M0 0 C0.33 1.32 0.66 2.64 1 4 C0.34 4 -0.32 4 -1 4 C-1.1546875 5.8871875 -1.1546875 5.8871875 -1.3125 7.8125 C-1.64022089 10.35345923 -1.84955114 11.76680427 -3.25 13.9375 C-5.45538602 15.27648437 -7.45889061 15.65660684 -10 16 C-8.31029911 12.33601701 -6.12699789 9.09167428 -3.875 5.75 C-3.15054688 4.67234375 -2.42609375 3.5946875 -1.6796875 2.484375 C-0.84824219 1.25460937 -0.84824219 1.25460937 0 0 Z " fill="#C39C13" transform="translate(238,402)"/>
<path d="M0 0 C1.65 0.33 3.3 0.66 5 1 C3.53039034 3.93921932 1.22331856 4.10031748 -1.73046875 5.1328125 C-4.74038555 6.28290119 -7.51566012 7.77753425 -10.3359375 9.328125 C-10.88507813 9.54984375 -11.43421875 9.7715625 -12 10 C-12.66 9.67 -13.32 9.34 -14 9 C-13.67 8.01 -13.34 7.02 -13 6 C-10.36 5.67 -7.72 5.34 -5 5 C-4.67 4.01 -4.34 3.02 -4 2 C-2.68 2 -1.36 2 0 2 C0 1.34 0 0.68 0 0 Z " fill="#9D7F18" transform="translate(266,157)"/>
<path d="M0 0 C1.9451 2.91765 2.45276317 4.62537285 3 8 C2.01 8.33 1.02 8.66 0 9 C-0.73323796 11.01508358 -0.73323796 11.01508358 -1 13 C-1.99 13 -2.98 13 -4 13 C-4.33 13.66 -4.66 14.32 -5 15 C-4.37321829 11.33827525 -3.35548154 8.1181005 -1.9375 4.6875 C-1.39416016 3.36298828 -1.39416016 3.36298828 -0.83984375 2.01171875 C-0.56269531 1.34785156 -0.28554687 0.68398438 0 0 Z " fill="#A28110" transform="translate(244,387)"/>
<path d="M0 0 C-2.43123269 1.36663387 -4.86886163 2.7183867 -7.3125 4.0625 C-8.00279297 4.45244141 -8.69308594 4.84238281 -9.40429688 5.24414062 C-11.22925688 6.24037483 -13.11273877 7.12752842 -15 8 C-15.99 7.67 -16.98 7.34 -18 7 C-17.34 7 -16.68 7 -16 7 C-16 6.01 -16 5.02 -16 4 C-14.68 4 -13.36 4 -12 4 C-12 3.34 -12 2.68 -12 2 C-10.02 2 -8.04 2 -6 2 C-6 1.34 -6 0.68 -6 0 C-2.25 -1.125 -2.25 -1.125 0 0 Z " fill="#8E7615" transform="translate(259,455)"/>
<path d="M0 0 C-1.3697164 3.99500618 -3.25722422 6.80009492 -6 10 C-6.66 9.67 -7.32 9.34 -8 9 C-8.3125 6.1875 -8.3125 6.1875 -8 3 C-5.14925356 0.68858396 -3.6860549 0 0 0 Z " fill="#AE8D10" transform="translate(291,424)"/>
<path d="M0 0 C3.89006773 1.38780795 6.96558708 3.2152227 10.3125 5.625 C11.19550781 6.25664062 12.07851562 6.88828125 12.98828125 7.5390625 C13.98408203 8.26222656 13.98408203 8.26222656 15 9 C14.34 9.66 13.68 10.32 13 11 C12.67 10.34 12.34 9.68 12 9 C9.67756717 7.9316809 7.36966067 6.94972648 5 6 C3.68605833 5.44087588 2.37347607 4.87854262 1.0625 4.3125 C0.051875 3.879375 -0.95875 3.44625 -2 3 C-1.34 2.01 -0.68 1.02 0 0 Z " fill="#856A15" transform="translate(229,276)"/>
<path d="M0 0 C1.55932272 3.11864545 0.65549131 5.66295335 0 9 C-0.66 9.66 -1.32 10.32 -2 11 C-2.99 11 -3.98 11 -5 11 C-5 12.65 -5 14.3 -5 16 C-5.66 16 -6.32 16 -7 16 C-6.66830805 9.69785303 -3.32676012 5.14783064 0 0 Z " fill="#937913" transform="translate(144,196)"/>
<path d="M0 0 C0 0.66 0 1.32 0 2 C3.63 2.33 7.26 2.66 11 3 C11 3.33 11 3.66 11 4 C8.95863605 4.05451714 6.91684144 4.09302485 4.875 4.125 C3.16957031 4.15980469 3.16957031 4.15980469 1.4296875 4.1953125 C-2.05757767 3.99672109 -4.7553862 3.2524801 -8 2 C-6.14210462 -1.71579076 -3.44525918 -1.06921837 0 0 Z " fill="#78631D" transform="translate(157,469)"/>
<path d="M0 0 C0.66 0.33 1.32 0.66 2 1 C1.32200284 3.71198863 0.62068868 5.51840541 -1.62109375 7.2578125 C-3.5 8.375 -3.5 8.375 -7 10 C-7.66 9.67 -8.32 9.34 -9 9 C-8.06725891 7.87105124 -7.12859878 6.74699124 -6.1875 5.625 C-5.66542969 4.99851563 -5.14335937 4.37203125 -4.60546875 3.7265625 C-3 2 -3 2 0 0 Z " fill="#B99718" transform="translate(169,170)"/>
<path d="M0 0 C0.66 0 1.32 0 2 0 C2 0.66 2 1.32 2 2 C2.99 2 3.98 2 5 2 C5.33 3.65 5.66 5.3 6 7 C6.66 7 7.32 7 8 7 C7.67 7.99 7.34 8.98 7 10 C6.01 9.34 5.02 8.68 4 8 C4 7.34 4 6.68 4 6 C2.68 5.34 1.36 4.68 0 4 C0 2.68 0 1.36 0 0 Z " fill="#AC8E19" transform="translate(149,289)"/>
<path d="M0 0 C0.99 0.66 1.98 1.32 3 2 C3.66 1.67 4.32 1.34 5 1 C3.34784004 4.57967992 1.26875648 7.77982952 -1 11 C-1.33 11 -1.66 11 -2 11 C-1.85892253 9.54119891 -1.71197585 8.08296449 -1.5625 6.625 C-1.48128906 5.81289062 -1.40007812 5.00078125 -1.31640625 4.1640625 C-1 2 -1 2 0 0 Z " fill="#A38711" transform="translate(206,201)"/>
<path d="M0 0 C0.99 0 1.98 0 3 0 C3.39180108 1.57925975 3.76280736 3.16368794 4.125 4.75 C4.33382812 5.63171875 4.54265625 6.5134375 4.7578125 7.421875 C5.03088304 10.32875493 4.53508028 11.56661348 3 14 C2.49307308 12.4188708 1.99473557 10.83498617 1.5 9.25 C1.2215625 8.36828125 0.943125 7.4865625 0.65625 6.578125 C0 4 0 4 0 0 Z " fill="#967815" transform="translate(243,332)"/>
<path d="M0 0 C-0.99 0 -1.98 0 -3 0 C-3 0.66 -3 1.32 -3 2 C-4.32 2 -5.64 2 -7 2 C-7.33 2.66 -7.66 3.32 -8 4 C-10.28515625 4.4140625 -10.28515625 4.4140625 -13.0625 4.625 C-13.98160156 4.69976562 -14.90070313 4.77453125 -15.84765625 4.8515625 C-16.91306641 4.92503906 -16.91306641 4.92503906 -18 5 C-15.53031367 2.53031367 -13.42511413 1.93002031 -10.125 0.8125 C-9.07570312 0.44769531 -8.02640625 0.08289063 -6.9453125 -0.29296875 C-4.06405115 -0.98462433 -2.72213388 -1.03230681 0 0 Z " fill="#7F6714" transform="translate(204,157)"/>
<path d="M0 0 C3.28715877 2.19143918 4.0353959 3.53044818 5.75 7 C6.42289063 8.3303125 6.42289063 8.3303125 7.109375 9.6875 C7.55023438 10.8321875 7.55023438 10.8321875 8 12 C7.67 12.66 7.34 13.32 7 14 C6.34 14 5.68 14 5 14 C5 12.35 5 10.7 5 9 C4.01 9 3.02 9 2 9 C1.34 6.03 0.68 3.06 0 0 Z " fill="#8A7115" transform="translate(229,325)"/>
<path d="M0 0 C3.25524265 3.02272532 5.61820737 6.25718301 8 10 C7.67 10.66 7.34 11.32 7 12 C5.35 11.67 3.7 11.34 2 11 C1.77213542 9.01432292 1.54427083 7.02864583 1.31640625 5.04296875 C1.02829265 2.80603607 1.02829265 2.80603607 0 0 Z " fill="#856C10" transform="translate(216,305)"/>
<path d="M0 0 C0 0.99 0 1.98 0 3 C-1.258125 3.268125 -2.51625 3.53625 -3.8125 3.8125 C-7.16718947 4.62611537 -8.61934666 5.50031399 -11 8 C-13.078125 7.58203125 -13.078125 7.58203125 -15 7 C-4.23282443 0 -4.23282443 0 0 0 Z " fill="#8A7017" transform="translate(186,162)"/>
<path d="M0 0 C0.66 0.99 1.32 1.98 2 3 C2.33 2.01 2.66 1.02 3 0 C3.33 0.99 3.66 1.98 4 3 C2.88625 3.6496875 2.88625 3.6496875 1.75 4.3125 C-0.61833926 5.76579909 -2.80924065 7.29607606 -5 9 C-5.66 8.67 -6.32 8.34 -7 8 C-4.69 5.36 -2.38 2.72 0 0 Z " fill="#A88212" transform="translate(227,418)"/>
<path d="M0 0 C4.6875 3.515625 4.6875 3.515625 6 5 C6 6.32 6 7.64 6 9 C6.99 9.33 7.98 9.66 9 10 C9.33 11.98 9.66 13.96 10 16 C7.37309236 14.68654618 6.91899539 13.26948967 5.5625 10.6875 C4.27204691 8.24008897 3.02415415 6.03154248 1.33984375 3.83203125 C0 2 0 2 0 0 Z " fill="#7B6511" transform="translate(211,275)"/>
<path d="M0 0 C0.66 0 1.32 0 2 0 C3.07010304 2.76443285 3.16283213 4.53851367 2.17578125 7.3359375 C1.16488321 9.58474227 0.11596524 11.80159637 -1 14 C-1.33 14 -1.66 14 -2 14 C-2.21192221 8.80790596 -1.5912689 4.873261 0 0 Z " fill="#A08415" transform="translate(201,211)"/>
<path d="M0 0 C0 3.63358497 -1.22316868 4.90142938 -3.5625 7.56640625 C-5.52110835 9.51969229 -7.4903571 10.84692083 -10 12 C-10.66 11.67 -11.32 11.34 -12 11 C-10.625 9.5 -10.625 9.5 -9 8 C-8.34 8 -7.68 8 -7 8 C-6.67 7.01 -6.34 6.02 -6 5 C-4.12382302 3.15500602 -2.07262391 1.6316401 0 0 Z " fill="#715C14" transform="translate(219,427)"/>
<path d="M0 0 C2.64 0 5.28 0 8 0 C8.28875 0.78375 8.5775 1.5675 8.875 2.375 C9.84912254 5.09671632 9.84912254 5.09671632 12 7 C8.80862651 6.36747553 6.48762632 5.24396936 3.75 3.5 C3.04359375 3.0565625 2.3371875 2.613125 1.609375 2.15625 C1.07828125 1.7746875 0.5471875 1.393125 0 1 C0 0.67 0 0.34 0 0 Z " fill="#8E7213" transform="translate(183,319)"/>
<path d="M0 0 C1.98 0 3.96 0 6 0 C6 2 6 2 3.8125 4.375 C1.29389166 6.72570111 -1.27358589 8.89676626 -4 11 C-3.71125 10.484375 -3.4225 9.96875 -3.125 9.4375 C-1.71219973 6.37643275 -0.8751483 3.25055082 0 0 Z " fill="#7A610F" transform="translate(218,187)"/>
<path d="M0 0 C5.12219354 0.81955097 7.31132728 1.90205547 10.4375 6.125 C11.30957195 7.40464604 12.16999962 8.6926734 13 10 C10.07153324 8.57268007 7.48582937 7.13071088 5 5 C5 4.34 5 3.68 5 3 C4.360625 2.87625 3.72125 2.7525 3.0625 2.625 C2.381875 2.41875 1.70125 2.2125 1 2 C0.67 1.34 0.34 0.68 0 0 Z " fill="#6D5910" transform="translate(226,343)"/>
<path d="M0 0 C2.475 0.99 2.475 0.99 5 2 C5 2.33 5 2.66 5 3 C-4.41002278 5.29612756 -4.41002278 5.29612756 -9 5 C-8.67 4.34 -8.34 3.68 -8 3 C-5.67793475 2.29508733 -3.34406932 1.62787571 -1 1 C-0.67 0.67 -0.34 0.34 0 0 Z " fill="#EFC627" transform="translate(217,466)"/>
<path d="M0 0 C2.72574271 0.37330824 3.80822085 0.79194601 5.703125 2.84765625 C6.21359375 3.57855469 6.7240625 4.30945313 7.25 5.0625 C8.03117188 6.16271484 8.03117188 6.16271484 8.828125 7.28515625 C9.21484375 7.85105469 9.6015625 8.41695313 10 9 C6.06048404 7.15014033 3.21678125 4.92434659 0 2 C0 1.34 0 0.68 0 0 Z " fill="#896E18" transform="translate(158,300)"/>
<path d="M0 0 C3.0916909 2.52956528 3.90931332 5.22454612 5 9 C3.35 8.67 1.7 8.34 0 8 C0 5.36 0 2.72 0 0 Z " fill="#9E8116" transform="translate(204,285)"/>
<path d="M0 0 C3.45925163 1.2491742 6.14693203 2.67527795 9 5 C6.69 5.33 4.38 5.66 2 6 C0 3 0 3 0 0 Z " fill="#78681C" transform="translate(204,261)"/>
<path d="M0 0 C0.33 0.66 0.66 1.32 1 2 C-1.97 4.31 -4.94 6.62 -8 9 C-8.66 8.67 -9.32 8.34 -10 8 C-9.67 7.01 -9.34 6.02 -9 5 C-6.9375 4.3125 -6.9375 4.3125 -5 4 C-5 3.01 -5 2.02 -5 1 C-3.35 0.67 -1.7 0.34 0 0 Z " fill="#6A570C" transform="translate(274,442)"/>
<path d="M0 0 C0.33 1.32 0.66 2.64 1 4 C0.34 4 -0.32 4 -1 4 C-1.061875 4.763125 -1.12375 5.52625 -1.1875 6.3125 C-2 9 -2 9 -4.5625 10.8125 C-5.366875 11.204375 -6.17125 11.59625 -7 12 C-5.61735163 9.13132769 -4.07851447 6.43975968 -2.375 3.75 C-1.92898437 3.04359375 -1.48296875 2.3371875 -1.0234375 1.609375 C-0.68570313 1.07828125 -0.34796875 0.5471875 0 0 Z " fill="#6F580D" transform="translate(238,402)"/>
<path d="M0 0 C0.474375 0.66 0.94875 1.32 1.4375 2 C2.2109375 2.99 2.2109375 2.99 3 4 C3.33 4 3.66 4 4 4 C4.625 7.375 4.625 7.375 5 11 C4.34 11.66 3.68 12.32 3 13 C-0.42857143 4.57142857 -0.42857143 4.57142857 0 0 Z " fill="#8A7313" transform="translate(133,257)"/>
<path d="M0 0 C3.31562557 0.55260426 6.15062207 1.16825705 9 3 C9.33 3.99 9.66 4.98 10 6 C5.56909529 4.79157144 3.01887244 3.48331435 0 0 Z " fill="#927817" transform="translate(196,326)"/>
<path d="M0 0 C2.94721162 2.74395564 5.19168608 5.38337216 7 9 C6.67 9.66 6.34 10.32 6 11 C4.98805294 9.92781799 3.99081943 8.84173622 3 7.75 C2.443125 7.14671875 1.88625 6.5434375 1.3125 5.921875 C0 4 0 4 0 0 Z " fill="#6E5811" transform="translate(209,294)"/>
<path d="M0 0 C1.90318884 2.85478326 2.4619099 4.41941308 3.125 7.6875 C3.29257813 8.49574219 3.46015625 9.30398438 3.6328125 10.13671875 C3.75398437 10.75160156 3.87515625 11.36648438 4 12 C3.34 12 2.68 12 2 12 C2 11.34 2 10.68 2 10 C1.34 10 0.68 10 0 10 C0 6.7 0 3.4 0 0 Z " fill="#886D14" transform="translate(197,266)"/>
<path d="M0 0 C-2.97 2.64 -5.94 5.28 -9 8 C-9.66 7.67 -10.32 7.34 -11 7 C-10.0409375 6.1028125 -10.0409375 6.1028125 -9.0625 5.1875 C-6.79689611 3.09189663 -6.79689611 3.09189663 -6 0 C-3.42525708 -0.99667468 -2.51072708 -1.25536354 0 0 Z " fill="#624D0D" transform="translate(235,179)"/>
<path d="M0 0 C0.66 0.33 1.32 0.66 2 1 C1.67 1.99 1.34 2.98 1 4 C1.99 4 2.98 4 4 4 C3.67 4.99 3.34 5.98 3 7 C1.68 6.67 0.36 6.34 -1 6 C-1.042721 4.33388095 -1.04063832 2.66617115 -1 1 C-0.67 0.67 -0.34 0.34 0 0 Z " fill="#F9C510" transform="translate(194,449)"/>
<path d="M0 0 C0.66 0 1.32 0 2 0 C1.38461538 5.53846154 1.38461538 5.53846154 -0.5625 7.875 C-1.036875 8.24625 -1.51125 8.6175 -2 9 C-2 7.02 -2 5.04 -2 3 C-1.34 3 -0.68 3 0 3 C0 2.01 0 1.02 0 0 Z " fill="#A88A1A" transform="translate(297,408)"/>
<path d="M0 0 C0.33 0 0.66 0 1 0 C1 2.64 1 5.28 1 8 C0.01 8.33 -0.98 8.66 -2 9 C-2.33 9.66 -2.66 10.32 -3 11 C-2.44894091 7.0507432 -1.61064629 3.65079826 0 0 Z " fill="#BD9A1F" transform="translate(248,376)"/>
<path d="M0 0 C4.75286041 4.29290618 4.75286041 4.29290618 5 8 C4.34 8.66 3.68 9.32 3 10 C3 8.68 3 7.36 3 6 C2.34 6 1.68 6 1 6 C0.67 4.02 0.34 2.04 0 0 Z " fill="#9A8218" transform="translate(224,317)"/>
<path d="M0 0 C2.31 0.33 4.62 0.66 7 1 C6.67 1.66 6.34 2.32 6 3 C6.99 3.33 7.98 3.66 9 4 C9.33 4.99 9.66 5.98 10 7 C9.34 7 8.68 7 8 7 C8 6.34 8 5.68 8 5 C7.4225 4.9175 6.845 4.835 6.25 4.75 C3.3840696 3.79468987 2.0009236 2.21530827 0 0 Z " fill="#886D12" transform="translate(168,309)"/>
<path d="M0 0 C4.43090471 1.20842856 6.98112756 2.51668565 10 6 C7.69 5.34 5.38 4.68 3 4 C3 3.34 3 2.68 3 2 C2.01 2.33 1.02 2.66 0 3 C0 2.01 0 1.02 0 0 Z " fill="#755F13" transform="translate(219,270)"/>
<path d="M0 0 C2.475 0.495 2.475 0.495 5 1 C4.67 1.99 4.34 2.98 4 4 C3.34 4 2.68 4 2 4 C1.67 4.99 1.34 5.98 1 7 C0.67 4.69 0.34 2.38 0 0 Z " fill="#BE9811" transform="translate(239,321)"/>
<path d="M0 0 C0.66 0 1.32 0 2 0 C1.8125 2.3125 1.8125 2.3125 1 5 C-1.5625 6.8125 -1.5625 6.8125 -4 8 C-2.87548273 5.0280615 -1.77706209 2.66559313 0 0 Z " fill="#796413" transform="translate(149,188)"/>
<path d="M0 0 C0.33 0 0.66 0 1 0 C1.125 5.75 1.125 5.75 0 8 C-0.66 8 -1.32 8 -2 8 C-2.33 9.32 -2.66 10.64 -3 12 C-2.67 9.36 -2.34 6.72 -2 4 C-1.34 4 -0.68 4 0 4 C0 2.68 0 1.36 0 0 Z " fill="#A4800F" transform="translate(196,232)"/>
<path d="M0 0 C3.36720387 1.39332574 4.9859524 2.9789286 7 6 C5.02 6 3.04 6 1 6 C1 4.68 1 3.36 1 2 C0.67 1.34 0.34 0.68 0 0 Z " fill="#80660A" transform="translate(272,307)"/>
<path d="M0 0 C1.98 0 3.96 0 6 0 C6.33 0.99 6.66 1.98 7 3 C5.02 3.33 3.04 3.66 1 4 C1.66 3.67 2.32 3.34 3 3 C3 2.34 3 1.68 3 1 C2.01 0.67 1.02 0.34 0 0 Z " fill="#705E20" transform="translate(270,154)"/>
</svg>
